<?xml version="1.0" encoding="utf-8"?>
<!-- Generator: Adobe Illustrator 19.1.0, SVG Export Plug-In . SVG Version: 6.00 Build 0)  -->
<svg version="1.1" id="Réteg_1" xmlns="http://www.w3.org/2000/svg" xmlns:xlink="http://www.w3.org/1999/xlink" x="0px" y="0px"
	 viewBox="0 0 702 148" style="enable-background:new 0 0 702 148;" xml:space="preserve">
<style type="text/css">
	.st0{stroke:#000000;stroke-miterlimit:10;}
</style>
<path class="st0" d="M179.7,101.7l-11.1,35.1c-0.2,0.7-0.9,1.2-1.6,1.2l-24.1,0c-1.1,0-2-1.1-1.6-2.2l11.6-36.9
	c1.5-4.4,0.5-9.7-1.8-12.4c-3.8-4.5-9.9-6.6-16.8-6.6c-11.1,0-22.8,6-25.7,18c-2.3,9.4,4.5,17.9,19.3,18c4.7,0,7.7-0.2,13.1-2.8
	c1.3-0.6,2.8,0.7,2.3,2.1l-6.4,19.6c-0.2,0.5-0.5,0.9-1,1.1c-3.1,1.2-7.8,2.2-11.6,2.2c-30.7,0-46-24.1-42.9-41.1
	c3.1-17.3,25.4-39.2,56.9-39.2C161.9,57.7,186.6,77.5,179.7,101.7"/>
<path class="st0" d="M23.1,154.6"/>
<path class="st0" d="M103.6,63C90.9,69.8,82,80.2,77.8,90c-0.2,0.5-0.6,0.8-1.1,1c-8.8,2.5-16,5.1-25.2,8.7c-0.5,0.2-0.9,0.6-1,1.1
	l-11.6,36.1c-0.2,0.7-0.9,1.2-1.6,1.2H12.7c-1.2,0-2-1.1-1.6-2.2l4.9-15.3l12-37.3c0.1-0.4,0.5-0.8,0.9-1C39.3,77,50.3,72.6,61.8,69
	c13.7-4.3,26.6-7.3,40.9-9.2C104.5,59.6,105.3,62.1,103.6,63z"/>
<path class="st0" d="M290.1,80.6c-5,0-10.2,1.2-14.6,3.7c-1.5,0.9-0.9,3.2,0.8,3.2h12.1c1.2,0,2,1.1,1.6,2.2l-5.9,18.5
	c-0.2,0.7-0.9,1.2-1.6,1.2h-12.3c-1.6,0-2.3,2.1-1,3.1c2.8,2.1,6.8,3.4,11.9,3.7c0.6,0,13.7,0,19.1,0c1.2,0,2,1.1,1.6,2.2l-5.9,18.5
	c-0.2,0.7-0.9,1.2-1.6,1.2h-18.9c-0.1,0-0.1,0-0.2,0c-17.3-1.5-29-10.9-34.7-21.6c-2.5-4.8-3.8-9.9-3.8-14.6c0-1.5,0.1-2.9,0.4-4.3
	c0.3-1.6,0.8-3.3,1.4-5c0.8-2,1.8-4.1,3-6.1c0.3-0.5,0.9-0.8,1.5-0.8h4.9c1.9,0,3.5-1.2,4-3l3.5-10.8c0.1-0.3,0.3-0.6,0.6-0.9
	c9.8-7.1,22.8-12.2,38.1-12.2h24.6c1.2,0,2,1.1,1.6,2.2l-5.9,18.5c-0.2,0.7-0.9,1.2-1.6,1.2H290.1z"/>
<path class="st0" d="M253.6,60.9l-5.9,18.7c-0.2,0.7-0.9,1.2-1.6,1.2c-8.6,0-22.6-0.2-22.6-0.2c-11.1,0-22.8,6-25.8,17.9
	c-2.2,8.8,4.9,16.9,16.8,17.7c0.4,0,13.6,0,19.1,0c1.2,0,2,1.1,1.6,2.2l-5.9,18.4c-0.2,0.7-0.9,1.2-1.6,1.2h-18.9
	c-0.1,0-0.1,0-0.2,0c-13.3-1.1-23.3-6.9-29.8-14.4c-0.4-0.4-0.5-1.1-0.3-1.6l6.2-19.4c2.4-8.6,1.2-16.8-2.5-23.8
	c-0.4-0.7-0.3-1.5,0.3-2c10.1-10.1,25.9-18.1,45-18.1H252C253.1,58.7,253.9,59.8,253.6,60.9z"/>
<path class="st0" d="M390.4,110.4c0,0.1,0,0.1-0.1,0.2c-4.7,11.6-27.9,27.5-52.7,27.5h-34.5c-1.2,0-2-1.1-1.6-2.2l5.9-18.5
	c0.2-0.7,0.9-1.2,1.6-1.2h33c10.6,0,22.8-7.1,26.4-17.9l5.9-18.2c3.5-10.4-3.2-18.7-15.9-20.8c-0.2,0-3.7-0.6-7.8-0.7
	c-0.8,0-1.4,0.5-1.7,1.2l-6.3,19.7c-0.2,0.7-0.9,1.2-1.6,1.2h-19.4c-1.2,0-2-1.1-1.6-2.2L332.8,38c0.2-0.8,1-1.3,1.8-1.2l27.9,2.8
	c20.9,1.8,37.1,18.7,37.7,36.8C400.2,81.2,394.6,96.8,390.4,110.4z"/>
<path class="st0" d="M620.7,101.7l-11.1,35.1c-0.2,0.7-0.9,1.2-1.6,1.2l-24.1,0c-1.1,0-2-1.1-1.6-2.2l11.6-36.9
	c1.5-4.4,0.5-9.7-1.8-12.4c-3.8-4.5-9.9-6.6-16.8-6.6c-11.1,0-22.8,6-25.8,18c-2.3,9.4,4.5,17.9,19.3,18c4.7,0,7.7-0.2,13.1-2.8
	c1.3-0.6,2.8,0.7,2.3,2.1l-6.4,19.6c-0.2,0.5-0.5,0.9-1,1.1c-3.1,1.2-7.8,2.2-11.6,2.2c-30.7,0-46-24.1-42.9-41.1
	c3.1-17.3,25.4-39.2,56.9-39.2C602.8,57.7,627.5,77.5,620.7,101.7"/>
<path class="st0" d="M536.7,138h-24.3c-0.1,0-0.1,0-0.2,0c-14.7-1.7-24.5-8-30.5-15.5c-0.4-0.4-0.5-1-0.3-1.6l6-18.8
	c3-10.5,0.5-20.3-5.2-28.3c-0.3-0.4-0.4-1-0.2-1.5l1-3.1c0.3-0.9,1.2-1.4,2-1.1c4.2,1.1,13.3,3.4,17.8,4.5c0.9,0.2,1.5,1.2,1.2,2.2
	l-1.1,3.6c-0.4,1.1,0.5,2.2,1.6,2.2h17.2c1.3,0,2.2,1.5,1.4,2.6c-2.9,4.5-5.8,11.5-5.9,17.6c0,0.9-0.8,1.7-1.7,1.7H503
	c-1.1,0-1.9,1.1-1.6,2.2c2.3,8.4,10.7,11.1,16.7,11.5c-0.2,0-1.1,0,0.8,0c0.6,0,1.2,0.4,1.5,0.9c3.5,6.9,9.2,13.2,17.1,17.7
	C539,135.7,538.5,138,536.7,138z"/>
<path class="st0" d="M339.2,89.7l-5.9,18.5c-0.2,0.7-0.9,1.2-1.6,1.2h-40.5c-1.2,0-2-1.1-1.6-2.2l5.9-18.5c0.2-0.7,0.9-1.2,1.6-1.2
	h40.5C338.7,87.5,339.6,88.6,339.2,89.7z"/>
<path class="st0" d="M356.4,34.5l-20-2.1c-1.1-0.1-1.8-1.2-1.4-2.2l6-18.6c0.2-0.7,0.9-1.2,1.6-1.2h3.8c0.6,0,1.2,0.4,1.5,1
	l10.2,20.8C358.7,33.3,357.8,34.7,356.4,34.5z"/>
<path class="st0" d="M322.4,53.5c-0.3,0.6-0.9,1-1.6,1h-25.1c-4.4,0-8.6,0.4-12.6,1.1c-1.2,0.2-2.2-0.9-1.9-2
	c0.1-0.4,0.2-0.8,0.3-1.3c0.2-0.7,0.8-1.3,1.6-1.3c4.6-0.1,14.4,0.3,19.1-0.7c4.2-1,11.5-5,9.7-10.2c-0.8-2.2-25.6-3.1-25.6-3.1
	c4.5-13.6,34.9-17.7,38.3,5.9C324.8,44.9,324.2,49,322.4,53.5z"/>
<path class="st0" d="M615.6,55.5l-2.6,8.4c-0.2,0.6-0.9,0.8-1.3,0.4c-1.7-1.4-3.6-2.6-5.5-3.7c-0.3-0.2-0.5-0.6-0.4-1l1.4-4.6
	c0.1-0.4,0.4-0.6,0.8-0.6h6.8C615.4,54.4,615.8,54.9,615.6,55.5z"/>
<path class="st0" d="M635.2,47.5l-9.7,31.5c-0.2,0.7-1.2,0.8-1.6,0.1c-1.2-2.5-2.7-4.8-4.5-7c-0.2-0.2-0.2-0.5-0.1-0.8l7.3-23.8
	c0.9-3-0.2-5.5-2.6-5.5h-3.6c-0.4,0-0.7,0.2-0.8,0.6l-2.1,6.9c-0.1,0.4-0.4,0.6-0.8,0.6h-6.8c-0.6,0-1-0.6-0.8-1.1l5.4-17.4
	c0.1-0.4,0.4-0.6,0.8-0.6h12.2C634.5,30.9,638,38.3,635.2,47.5z"/>
<path class="st0" d="M691.2,32l-2.9,9.3c-0.1,0.4-0.4,0.6-0.8,0.6h-7.3c-0.4,0-0.7,0.2-0.8,0.6l-13.2,42.9c-0.1,0.4-0.4,0.6-0.8,0.6
	h-6.8c-0.6,0-1-0.6-0.8-1.1L670.7,43c0.2-0.5-0.2-1.1-0.8-1.1H654c-2.4,0-5,2.5-6,5.5l-1.4,4.4c-0.2,0.5,0.2,1.1,0.8,1.1h6.2
	c0.6,0,1,0.6,0.8,1.1l-2.9,9.3c-0.1,0.4-0.4,0.6-0.8,0.6h-7.3c-0.4,0-0.7,0.2-0.8,0.6l-1.5,4.9c-0.9,3,0.2,5.5,2.6,5.5h11.7
	c0.6,0,1,0.6,0.8,1.1l-2.9,9.3c-0.1,0.4-0.4,0.6-0.8,0.6h-12.2c-7.1,0-10.5-7.4-7.7-16.5l6.8-22.1c2.8-9.1,10.8-16.5,17.9-16.5h33
	C691,30.9,691.4,31.5,691.2,32z"/>
<path class="st0" d="M483,101.8l-11.1,35.1c-0.2,0.7-0.9,1.2-1.6,1.2h-24.1c-1.1,0-2-1.1-1.6-2.2l11.6-36.9
	c1.5-4.4,0.5-9.7-1.8-12.4c-3.8-4.5-9.9-6.6-16.8-6.6c-11.1,0-22.8,6-25.8,18c-2.3,9.4,4.5,17.9,19.3,18c4.7,0,7.7-0.2,13.1-2.8
	c1.3-0.6,2.8,0.7,2.3,2.1l-6.4,19.6c-0.2,0.5-0.5,0.9-1,1.1c-3.1,1.2-7.8,2.2-11.6,2.2c-17.4,0-29.9-7.8-36.9-17.6
	c-0.4-0.6-0.4-1.4,0.1-2c1.5-1.9,2.6-3.8,3.3-5.6c0,0,0-0.1,0.1-0.2c4.7-14.8,10.8-32,10.8-37.1c-0.1-1.7-0.2-3.3-0.5-5
	c-0.1-0.7,0.1-1.3,0.7-1.7c9.6-6.6,22-11.1,36.4-11.1C465.1,57.7,489.8,77.5,483,101.8z"/>
</svg>
